<svg viewBox="0 0 240 240" fill="none" xmlns="http://www.w3.org/2000/svg">
<g clip-path="url(#clip0_820_5501)">
<path fill-rule="evenodd" clip-rule="evenodd" d="M177.648 182.473C178.971 179.037 175.581 176.063 171.998 176.91C163.516 178.914 154.438 180 145 180C105.651 180 72.5464 161.126 62.8648 135.503C61.7269 132.492 58.273 130.81 55.4958 132.438C39.8646 141.601 30 155.033 30 170C30 197.614 63.5786 220 105 220C139.961 220 169.336 204.052 177.648 182.473Z" fill="url(#paint0_linear_820_5501)"/>
<path fill-rule="evenodd" clip-rule="evenodd" d="M194.506 82.4376C191.728 80.8095 188.274 82.4914 187.137 85.5029C177.455 111.126 144.351 130 105.001 130C95.5641 130 86.4863 128.915 78.0047 126.911C74.4212 126.064 71.0317 129.038 72.3552 132.474C80.6673 154.052 110.041 170 145.003 170C186.424 170 220.003 147.614 220.003 120C220.003 105.032 210.137 91.6009 194.506 82.4376Z" fill="url(#paint1_linear_820_5501)"/>
<ellipse cx="105" cy="70" rx="75" ry="50" fill="url(#paint2_linear_820_5501)"/>
</g>
<defs>
<linearGradient id="paint0_linear_820_5501" x1="30" y1="220" x2="178" y2="132" gradientUnits="userSpaceOnUse">
<stop stop-color="#F87171"/>
<stop offset="1" stop-color="#DC2626"/>
</linearGradient>
<linearGradient id="paint1_linear_820_5501" x1="72.0625" y1="170" x2="224.655" y2="90.6717" gradientUnits="userSpaceOnUse">
<stop stop-color="#FB923C"/>
<stop offset="1" stop-color="#EA580C"/>
</linearGradient>
<linearGradient id="paint2_linear_820_5501" x1="30" y1="120" x2="180" y2="20" gradientUnits="userSpaceOnUse">
<stop stop-color="#FACC15"/>
<stop offset="1" stop-color="#CA8A04"/>
</linearGradient>
<clipPath id="clip0_820_5501">
<rect width="240" height="240" fill="white"/>
</clipPath>
</defs>
</svg>
