<svg viewBox="0 0 240 240" fill="none" xmlns="http://www.w3.org/2000/svg">
<g clip-path="url(#clip0_816_5683)">
<path fill-rule="evenodd" clip-rule="evenodd" d="M69.999 41C69.999 57.5685 56.5676 71 39.999 71C37.112 71 34.3494 72.7179 33.7522 75.5425C31.1498 87.852 29.999 102.56 29.999 120C29.999 195.829 51.7529 220 119.999 220C137.228 220 151.494 218.459 163.195 214.936C168.379 213.375 170.454 207.536 170.074 202.135C170.024 201.43 169.999 200.718 169.999 200C169.999 183.431 183.43 170 199.999 170C202.754 170 205.384 168.367 205.982 165.677C208.771 153.122 209.999 138.02 209.999 120C209.999 44.1711 188.245 20 119.999 20C102.695 20 88.3802 21.5539 76.6509 25.1098C71.3786 26.7081 69.3615 32.7111 69.8698 38.1969C69.9553 39.1198 69.999 40.0548 69.999 41ZM79.999 65C74.4762 65 69.999 69.4772 69.999 75C69.999 80.5228 74.4762 85 79.999 85H159.999C165.522 85 169.999 80.5228 169.999 75C169.999 69.4772 165.522 65 159.999 65H79.999ZM69.999 105C69.999 99.4771 74.4762 95 79.999 95H159.999C165.522 95 169.999 99.4771 169.999 105C169.999 110.523 165.522 115 159.999 115H79.999C74.4762 115 69.999 110.523 69.999 105ZM79.999 125C74.4762 125 69.999 129.477 69.999 135C69.999 140.523 74.4762 145 79.999 145H159.999C165.522 145 169.999 140.523 169.999 135C169.999 129.477 165.522 125 159.999 125H79.999ZM69.999 165C69.999 159.477 74.4762 155 79.999 155H139.999C145.522 155 149.999 159.477 149.999 165C149.999 170.523 145.522 175 139.999 175H79.999C74.4762 175 69.999 170.523 69.999 165Z" fill="url(#paint0_linear_816_5683)"/>
<circle cx="40" cy="40" r="20" fill="url(#paint1_linear_816_5683)"/>
<circle cx="200" cy="200" r="20" fill="url(#paint2_linear_816_5683)"/>
</g>
<defs>
<linearGradient id="paint0_linear_816_5683" x1="119.999" y1="20" x2="119.999" y2="220" gradientUnits="userSpaceOnUse">
<stop stop-color="#60A5FA"/>
<stop offset="1" stop-color="#2563EB"/>
</linearGradient>
<linearGradient id="paint1_linear_816_5683" x1="40" y1="20" x2="40" y2="60" gradientUnits="userSpaceOnUse">
<stop stop-color="#FB923C"/>
<stop offset="1" stop-color="#EA580C"/>
</linearGradient>
<linearGradient id="paint2_linear_816_5683" x1="200" y1="180" x2="200" y2="220" gradientUnits="userSpaceOnUse">
<stop stop-color="#2DD4BF"/>
<stop offset="1" stop-color="#0D9488"/>
</linearGradient>
<clipPath id="clip0_816_5683">
<rect width="240" height="240" fill="white"/>
</clipPath>
</defs>
</svg>
