<svg width="272" height="272" viewBox="0 0 272 272" fill="none" xmlns="http://www.w3.org/2000/svg">
<g clip-path="url(#clip0_48_79)">
<path fill-rule="evenodd" clip-rule="evenodd" d="M272 136C272 211.111 211.111 272 136 272C60.8893 272 0 211.111 0 136C0 60.8893 60.8893 0 136 0C211.111 0 272 60.8893 272 136ZM188 136C188 164.719 164.719 188 136 188C133.608 188 131.254 187.839 128.948 187.526C127.301 187.303 126.047 185.995 125.67 184.376C121.28 165.544 106.456 150.72 87.6236 146.33C86.0051 145.953 84.6975 144.699 84.4742 143.052C84.1615 140.746 84 138.392 84 136C84 107.281 107.281 84 136 84C138.392 84 140.746 84.1615 143.052 84.4742C144.699 84.6975 145.953 86.0051 146.33 87.6236C150.72 106.456 165.544 121.28 184.376 125.67C185.995 126.047 187.303 127.301 187.526 128.948C187.839 131.254 188 133.608 188 136Z" fill="white"/>
<path d="M87.6806 87.3453C100.076 75.0345 117.15 67.4284 136 67.4284C137.97 67.4284 139.92 67.5114 141.848 67.6742C143.706 67.8311 145.402 66.5595 145.808 64.7391C149.703 47.3052 162.448 33.2109 179.082 27.4188C180.635 26.878 180.795 24.6275 179.26 24.0343C165.84 18.8454 151.252 16 136 16C118.366 16 101.619 19.804 86.5371 26.6359C85.3315 27.1821 84.5715 28.3913 84.5715 29.7149V86.11C84.5715 87.6892 86.5601 88.458 87.6806 87.3453Z" fill="#27272A"/>
<path d="M207.24 232.574C206.126 233.396 204.571 232.591 204.571 231.204V136C204.571 134.03 204.489 132.08 204.326 130.152C204.168 128.294 205.44 126.598 207.261 126.192C224.695 122.297 238.788 109.552 244.581 92.9177C245.121 91.3643 247.372 91.2054 247.965 92.7394C253.154 106.16 256 120.748 256 136C256 175.599 236.819 210.718 207.24 232.574Z" fill="#27272A"/>
<path d="M231 76C231 95.33 215.331 111 196 111C176.67 111 161 95.33 161 76C161 56.67 176.67 41 196 41C215.331 41 231 56.67 231 76Z" fill="#F05252"/>
<path d="M111 197C111 216.33 95.3308 232 76.0002 232C56.6696 232 41 216.33 41 197C41 177.67 56.6696 162 76.0002 162C95.3308 162 111 177.67 111 197Z" fill="#F05252"/>
<path d="M27.4189 179.081C26.878 180.635 24.6275 180.794 24.0344 179.26C18.8454 165.839 16 151.252 16 136C16 96.4006 35.1812 61.2811 64.7596 39.4258C65.8738 38.6022 67.4287 39.4095 67.4287 40.7951V136C67.4287 137.969 67.5117 139.92 67.6745 141.847C67.8314 143.706 66.5597 145.401 64.7393 145.808C47.3053 149.702 33.211 162.448 27.4189 179.081Z" fill="#27272A"/>
<path d="M185.462 245.364C186.669 244.817 187.428 243.609 187.428 242.285V185.889C187.428 184.31 185.44 183.542 184.318 184.655C171.924 196.965 154.85 204.571 135.999 204.571C134.03 204.571 132.08 204.489 130.152 204.326C128.293 204.168 126.598 205.44 126.191 207.261C122.297 224.695 109.551 238.788 92.9172 244.581C91.3639 245.122 91.205 247.372 92.7389 247.965C106.16 253.154 120.747 255.999 135.999 255.999C153.634 255.999 170.381 252.195 185.462 245.364Z" fill="#27272A"/>
</g>
<defs>
<clipPath id="clip0_48_79">
<rect width="272" height="272" fill="white"/>
</clipPath>
</defs>
</svg>
