<svg viewBox="0 0 24 24" fill="currentColor" xmlns="http://www.w3.org/2000/svg">
  <path d="M10.0089 11.6444C9.54986 11.4785 9.05109 11.402 8.5877 11.5555C5.98383 12.4178 3.8112 14.2267 2.47748 16.5745C2.14284 17.1636 2.20236 17.8944 2.62196 18.4262C4.81945 21.2119 8.22524 23 12.0487 23C15.872 23 19.2778 21.2119 21.4753 18.4264C21.8949 17.8945 21.9544 17.1637 21.6198 16.5746C20.286 14.2268 18.1134 12.4179 15.5095 11.5555C15.0461 11.402 14.5473 11.4785 14.0882 11.6444C13.4515 11.8746 12.7647 12 12.0486 12C11.3325 12 10.6457 11.8746 10.0089 11.6444Z"></path>
  <path d="M17.0486 6C17.0486 8.76142 14.81 11 12.0486 11C9.2872 11 7.04863 8.76142 7.04863 6C7.04863 3.23858 9.2872 1 12.0486 1C14.81 1 17.0486 3.23858 17.0486 6Z"></path>
</svg>