<svg viewBox="0 0 48 16" fill="none" xmlns="http://www.w3.org/2000/svg">
<path d="M26 8C26 9.65685 24.6569 11 23 11C21.3431 11 20 9.65685 20 8V4.5C20 4.22386 19.7761 4 19.5 4C19.2239 4 19 4.22386 19 4.5V8C19 10.2091 20.7909 12 23 12C25.2091 12 27 10.2091 27 8V4.5C27 4.22386 26.7761 4 26.5 4C26.2239 4 26 4.22386 26 4.5V8Z" fill="url(#paint0_linear_1_487)"/>
<path d="M36 8V11.5C36 11.7761 36.2239 12 36.5 12C36.7761 12 37 11.7761 37 11.5V8C37 5.79086 35.2091 4 33 4C30.7909 4 29 5.79086 29 8V11.5C29 11.7761 29.2239 12 29.5 12C29.7761 12 30 11.7761 30 11.5V8C30 6.34315 31.3431 5 33 5C34.6569 5 36 6.34315 36 8Z" fill="url(#paint1_linear_1_487)"/>
<path fill-rule="evenodd" clip-rule="evenodd" d="M46 10.6458V12H47V8C47 5.79086 45.2091 4 43 4C40.7909 4 39 5.79086 39 8C39 10.2091 40.7909 12 43 12C44.1947 12 45.2671 11.4762 46 10.6458ZM46 8C46 9.65685 44.6569 11 43 11C41.3431 11 40 9.65685 40 8C40 6.34315 41.3431 5 43 5C44.6569 5 46 6.34315 46 8Z" fill="url(#paint2_linear_1_487)"/>
<path fill-rule="evenodd" clip-rule="evenodd" d="M12 13.5536C12 13.6345 12.0907 13.6815 12.1557 13.6335C13.8811 12.3586 15 10.31 15 8C15 7.1103 14.834 6.25937 14.5313 5.47648C14.4967 5.38699 14.3654 5.39627 14.3339 5.48688C13.9855 6.48754 13.122 7.24694 12.061 7.44764C12.0075 7.45775 11.9703 7.50737 11.9762 7.56146C11.9919 7.70548 12 7.8518 12 8V13.5536ZM8 4C6.9004 4 5.90443 4.44369 5.18136 5.16182C5.116 5.22673 5 5.18188 5 5.08976V1.73684C5 1.69823 5.02219 1.66302 5.0572 1.64677C5.95184 1.23168 6.94886 1 8 1C8.8897 1 9.74063 1.16598 10.5235 1.46867C10.613 1.50327 10.6037 1.63455 10.5131 1.6661C9.51246 2.01453 8.75306 2.878 8.55236 3.93903C8.54225 3.99249 8.49263 4.02966 8.43854 4.02376C8.29452 4.00806 8.1482 4 8 4Z" fill="url(#paint3_linear_1_487)"/>
<path d="M13.5 4.5C13.5 5.60457 12.6046 6.5 11.5 6.5C10.3954 6.5 9.5 5.60457 9.5 4.5C9.5 3.39543 10.3954 2.5 11.5 2.5C12.6046 2.5 13.5 3.39543 13.5 4.5Z" fill="url(#paint4_linear_1_487)"/>
<path fill-rule="evenodd" clip-rule="evenodd" d="M11 14.2631C11 14.3017 10.9778 14.3369 10.9428 14.3532C10.0482 14.7683 9.05114 14.9999 8 14.9999C7.1103 14.9999 6.25937 14.834 5.47648 14.5313C5.38699 14.4967 5.39627 14.3654 5.48688 14.3338C6.48754 13.9854 7.24694 13.122 7.44764 12.0609C7.45775 12.0075 7.50737 11.9703 7.56146 11.9762C7.70548 11.9919 7.8518 11.9999 8 11.9999C9.0996 11.9999 10.0956 11.5563 10.8186 10.8381C10.884 10.7732 11 10.8181 11 10.9102V14.2631ZM1.46867 10.5235C1.50327 10.613 1.63455 10.6037 1.6661 10.5131C2.01453 9.51241 2.878 8.75301 3.93903 8.55231C3.99249 8.5422 4.02966 8.49258 4.02376 8.43849C4.00806 8.29447 4 8.14815 4 7.99995V2.44631C4 2.36549 3.9093 2.3184 3.8443 2.36644C2.1189 3.64134 1 5.68998 1 7.99995C1 8.88965 1.16598 9.74058 1.46867 10.5235Z" fill="url(#paint5_linear_1_487)"/>
<path d="M6.5 11.5C6.5 12.6046 5.60457 13.5 4.5 13.5C3.39543 13.5 2.5 12.6046 2.5 11.5C2.5 10.3954 3.39543 9.5 4.5 9.5C5.60457 9.5 6.5 10.3954 6.5 11.5Z" fill="url(#paint6_linear_1_487)"/>
<defs>
<linearGradient id="paint0_linear_1_487" x1="23" y1="4" x2="23" y2="12" gradientUnits="userSpaceOnUse">
<stop stop-color="#EE807B"/>
<stop offset="1" stop-color="#AD2D28"/>
</linearGradient>
<linearGradient id="paint1_linear_1_487" x1="33" y1="4" x2="33" y2="12" gradientUnits="userSpaceOnUse">
<stop stop-color="#EE807B"/>
<stop offset="1" stop-color="#AD2D28"/>
</linearGradient>
<linearGradient id="paint2_linear_1_487" x1="43" y1="4" x2="43" y2="12" gradientUnits="userSpaceOnUse">
<stop stop-color="#EE807B"/>
<stop offset="1" stop-color="#AD2D28"/>
</linearGradient>
<linearGradient id="paint3_linear_1_487" x1="10" y1="1" x2="10" y2="13.7453" gradientUnits="userSpaceOnUse">
<stop stop-color="#60A5FA"/>
<stop offset="1" stop-color="#2563EB"/>
</linearGradient>
<linearGradient id="paint4_linear_1_487" x1="11.5" y1="2.5" x2="11.5" y2="6.5" gradientUnits="userSpaceOnUse">
<stop stop-color="#EE807B"/>
<stop offset="1" stop-color="#AD2D28"/>
</linearGradient>
<linearGradient id="paint5_linear_1_487" x1="6" y1="2.25464" x2="6" y2="14.9999" gradientUnits="userSpaceOnUse">
<stop stop-color="#2DD4BF"/>
<stop offset="1" stop-color="#0D9488"/>
</linearGradient>
<linearGradient id="paint6_linear_1_487" x1="4.5" y1="9.5" x2="4.5" y2="13.5" gradientUnits="userSpaceOnUse">
<stop stop-color="#EE807B"/>
<stop offset="1" stop-color="#AD2D28"/>
</linearGradient>
</defs>
</svg>
